<svg width="69" height="23" viewBox="0 0 69 23" fill="none" xmlns="http://www.w3.org/2000/svg">
<path d="M18.5695 8.5105L13.5205 22H7.375L0.9235 1.0645H7.8085L11.3275 15.0385L16.3 1.4725H20.8645L25.786 15.0385L29.3305 1.0645H36.2155L29.7895 22H23.644L18.5695 8.5105ZM51.6482 22V18.3535C51.4952 18.7275 51.1042 19.2545 50.4752 19.9345C49.8462 20.6145 48.9962 21.235 47.9252 21.796C46.8712 22.34 45.6302 22.612 44.2022 22.612C42.1962 22.612 40.4197 22.136 38.8727 21.184C37.3257 20.215 36.1102 18.8975 35.2262 17.2315C34.3592 15.5485 33.9257 13.653 33.9257 11.545C33.9257 9.437 34.3592 7.55 35.2262 5.884C36.1102 4.201 37.3257 2.875 38.8727 1.906C40.4197 0.936999 42.1962 0.452499 44.2022 0.452499C45.5962 0.452499 46.8032 0.690499 47.8232 1.1665C48.8602 1.6255 49.6932 2.1695 50.3222 2.7985C50.9682 3.4105 51.3847 3.963 51.5717 4.456V1.0645H57.9977V22H51.6482ZM40.2752 11.545C40.2752 12.718 40.5387 13.755 41.0657 14.656C41.5927 15.54 42.2897 16.2285 43.1567 16.7215C44.0237 17.2145 44.9672 17.461 45.9872 17.461C47.0582 17.461 48.0102 17.2145 48.8432 16.7215C49.6762 16.2115 50.3307 15.5145 50.8067 14.6305C51.2997 13.7295 51.5462 12.701 51.5462 11.545C51.5462 10.389 51.2997 9.369 50.8067 8.485C50.3307 7.584 49.6762 6.8785 48.8432 6.3685C48.0102 5.8585 47.0582 5.6035 45.9872 5.6035C44.9672 5.6035 44.0237 5.8585 43.1567 6.3685C42.2897 6.8615 41.5927 7.5585 41.0657 8.4595C40.5387 9.3435 40.2752 10.372 40.2752 11.545ZM64.2583 22.612C63.1193 22.612 62.1418 22.204 61.3258 21.388C60.5098 20.572 60.1018 19.5945 60.1018 18.4555C60.1018 17.2825 60.5098 16.288 61.3258 15.472C62.1418 14.656 63.1193 14.248 64.2583 14.248C65.4313 14.248 66.4173 14.656 67.2163 15.472C68.0323 16.288 68.4403 17.2825 68.4403 18.4555C68.4403 19.5945 68.0323 20.572 67.2163 21.388C66.4173 22.204 65.4313 22.612 64.2583 22.612Z" fill="#333333"/>
</svg>
