<svg width="188" height="50" viewBox="0 0 188 50" fill="none" xmlns="http://www.w3.org/2000/svg">
<path d="M12.954 47.1945C11.424 47.1945 9.9535 47.05 8.5425 46.761C7.1485 46.472 5.882 46.0215 4.743 45.4095C3.604 44.7975 2.652 43.9985 1.887 43.0125L5.814 39.0345C6.171 39.4935 6.63 39.9525 7.191 40.4115C7.769 40.8875 8.5 41.2785 9.384 41.5845C10.268 41.9075 11.373 42.069 12.699 42.069C13.957 42.069 15.0365 41.8225 15.9375 41.3295C16.8555 40.8535 17.561 40.1735 18.054 39.2895C18.564 38.4055 18.819 37.377 18.819 36.204V35.6175H25.1685V36.5865C25.1685 38.8985 24.6245 40.845 23.5365 42.426C22.4485 44.007 20.9865 45.197 19.1505 45.996C17.3145 46.795 15.249 47.1945 12.954 47.1945ZM18.819 36V32.3535C18.666 32.7275 18.275 33.2545 17.646 33.9345C17.017 34.6145 16.167 35.235 15.096 35.796C14.042 36.34 12.801 36.612 11.373 36.612C9.367 36.612 7.5905 36.136 6.0435 35.184C4.4965 34.215 3.281 32.8975 2.397 31.2315C1.53 29.5485 1.0965 27.653 1.0965 25.545C1.0965 23.437 1.53 21.55 2.397 19.884C3.281 18.201 4.4965 16.875 6.0435 15.906C7.5905 14.937 9.367 14.4525 11.373 14.4525C12.767 14.4525 13.974 14.6905 14.994 15.1665C16.031 15.6255 16.864 16.1695 17.493 16.7985C18.139 17.4105 18.5555 17.963 18.7425 18.456V15.0645H25.1685V36H18.819ZM7.446 25.545C7.446 26.718 7.7095 27.755 8.2365 28.656C8.7635 29.54 9.4605 30.2285 10.3275 30.7215C11.1945 31.2145 12.138 31.461 13.158 31.461C14.229 31.461 15.181 31.2145 16.014 30.7215C16.847 30.2115 17.5015 29.5145 17.9775 28.6305C18.4705 27.7295 18.717 26.701 18.717 25.545C18.717 24.389 18.4705 23.369 17.9775 22.485C17.5015 21.584 16.847 20.8785 16.014 20.3685C15.181 19.8585 14.229 19.6035 13.158 19.6035C12.138 19.6035 11.1945 19.8585 10.3275 20.3685C9.4605 20.8615 8.7635 21.5585 8.2365 22.4595C7.7095 23.3435 7.446 24.372 7.446 25.545ZM36.7818 36.612C34.5548 36.612 32.5658 36.136 30.8148 35.184C29.0808 34.232 27.7208 32.9315 26.7348 31.2825C25.7488 29.6165 25.2558 27.721 25.2558 25.596C25.2558 23.471 25.7488 21.5755 26.7348 19.9095C27.7208 18.2265 29.0808 16.9005 30.8148 15.9315C32.5658 14.9455 34.5548 14.4525 36.7818 14.4525C39.0258 14.4525 41.0063 14.9455 42.7233 15.9315C44.4403 16.9005 45.7833 18.2265 46.7523 19.9095C47.7213 21.5755 48.2058 23.471 48.2058 25.596C48.2058 27.721 47.7213 29.6165 46.7523 31.2825C45.7833 32.9315 44.4403 34.232 42.7233 35.184C41.0063 36.136 39.0258 36.612 36.7818 36.612ZM36.7818 31.2315C37.8528 31.2315 38.7793 30.9935 39.5613 30.5175C40.3603 30.0245 40.9723 29.353 41.3973 28.503C41.8393 27.636 42.0603 26.6585 42.0603 25.5705C42.0603 24.4825 41.8393 23.505 41.3973 22.638C40.9723 21.771 40.3603 21.091 39.5613 20.598C38.7793 20.088 37.8528 19.833 36.7818 19.833C35.7108 19.833 34.7758 20.088 33.9768 20.598C33.1948 21.091 32.5828 21.771 32.1408 22.638C31.6988 23.505 31.4778 24.4825 31.4778 25.5705C31.4778 26.6585 31.6988 27.636 32.1408 28.503C32.5828 29.353 33.1948 30.0245 33.9768 30.5175C34.7758 30.9935 35.7108 31.2315 36.7818 31.2315ZM61.8351 14.4525C63.2631 14.4525 64.6571 14.75 66.0171 15.345C67.3771 15.923 68.4906 16.8495 69.3576 18.1245C70.2416 19.3995 70.6836 21.0655 70.6836 23.1225V36H64.1811V24.2445C64.1811 22.5275 63.7731 21.2525 62.9571 20.4195C62.1581 19.5865 61.1041 19.17 59.7951 19.17C58.9451 19.17 58.1291 19.408 57.3471 19.884C56.5821 20.343 55.9531 20.989 55.4601 21.822C54.9841 22.638 54.7461 23.573 54.7461 24.627V36H48.2691V15.0645H54.7461V18.405C54.9331 17.827 55.3581 17.232 56.0211 16.62C56.6841 16.008 57.5256 15.498 58.5456 15.09C59.5656 14.665 60.6621 14.4525 61.8351 14.4525ZM71.9933 36V15.0645H78.4448V36H71.9933ZM75.3083 9.6585C74.2373 9.6585 73.3278 9.2845 72.5798 8.5365C71.8488 7.7885 71.4833 6.896 71.4833 5.859C71.4833 4.822 71.8573 3.921 72.6053 3.156C73.3533 2.391 74.2543 2.0085 75.3083 2.0085C76.0053 2.0085 76.6428 2.187 77.2208 2.544C77.7988 2.884 78.2663 3.343 78.6233 3.921C78.9803 4.499 79.1588 5.145 79.1588 5.859C79.1588 6.896 78.7763 7.7885 78.0113 8.5365C77.2633 9.2845 76.3623 9.6585 75.3083 9.6585ZM91.043 31.461C92.148 31.461 93.049 31.274 93.746 30.9C94.443 30.526 94.902 30.2455 95.123 30.0585L98.132 34.521C97.894 34.708 97.452 34.9715 96.806 35.3115C96.16 35.6515 95.3355 35.949 94.3325 36.204C93.3465 36.476 92.216 36.612 90.941 36.612C88.731 36.612 86.7505 36.17 84.9995 35.286C83.2485 34.385 81.863 33.11 80.843 31.461C79.84 29.795 79.3385 27.8145 79.3385 25.5195C79.3385 23.2075 79.84 21.227 80.843 19.578C81.863 17.929 83.2485 16.6625 84.9995 15.7785C86.7505 14.8945 88.731 14.4525 90.941 14.4525C92.199 14.4525 93.3125 14.5885 94.2815 14.8605C95.2675 15.1325 96.092 15.447 96.755 15.804C97.418 16.144 97.877 16.4245 98.132 16.6455L95.0465 21.1335C94.9275 20.9975 94.698 20.8105 94.358 20.5725C94.018 20.3345 93.5675 20.1135 93.0065 19.9095C92.4625 19.7055 91.808 19.6035 91.043 19.6035C90.108 19.6035 89.2155 19.85 88.3655 20.343C87.5325 20.836 86.8525 21.5245 86.3255 22.4085C85.7985 23.2925 85.535 24.3295 85.535 25.5195C85.535 26.7095 85.7985 27.755 86.3255 28.656C86.8525 29.54 87.5325 30.2285 88.3655 30.7215C89.2155 31.2145 90.108 31.461 91.043 31.461ZM111.233 14.4525C112.661 14.4525 114.055 14.75 115.415 15.345C116.775 15.923 117.888 16.8495 118.755 18.1245C119.639 19.3995 120.081 21.0655 120.081 23.1225V36H113.579V24.2445C113.579 22.5275 113.188 21.2525 112.406 20.4195C111.641 19.5865 110.612 19.17 109.32 19.17C108.453 19.17 107.62 19.408 106.821 19.884C106.039 20.343 105.393 20.989 104.883 21.822C104.39 22.638 104.144 23.573 104.144 24.627V36H97.6411V0.911999H104.144V18.405C104.314 17.827 104.73 17.232 105.393 16.62C106.056 16.008 106.898 15.498 107.918 15.09C108.938 14.665 110.043 14.4525 111.233 14.4525ZM121.461 36V15.0645H127.913V36H121.461ZM124.776 9.6585C123.705 9.6585 122.796 9.2845 122.048 8.5365C121.317 7.7885 120.951 6.896 120.951 5.859C120.951 4.822 121.325 3.921 122.073 3.156C122.821 2.391 123.722 2.0085 124.776 2.0085C125.473 2.0085 126.111 2.187 126.689 2.544C127.267 2.884 127.734 3.343 128.091 3.921C128.448 4.499 128.627 5.145 128.627 5.859C128.627 6.896 128.244 7.7885 127.479 8.5365C126.731 9.2845 125.83 9.6585 124.776 9.6585ZM144.948 22.5105L139.899 36H133.753L127.302 15.0645H134.187L137.706 29.0385L142.678 15.4725H147.243L152.164 29.0385L155.709 15.0645H162.594L156.168 36H150.022L144.948 22.5105ZM178.027 36V32.3535C177.874 32.7275 177.483 33.2545 176.854 33.9345C176.225 34.6145 175.375 35.235 174.304 35.796C173.25 36.34 172.009 36.612 170.581 36.612C168.575 36.612 166.798 36.136 165.251 35.184C163.704 34.215 162.489 32.8975 161.605 31.2315C160.738 29.5485 160.304 27.653 160.304 25.545C160.304 23.437 160.738 21.55 161.605 19.884C162.489 18.201 163.704 16.875 165.251 15.906C166.798 14.937 168.575 14.4525 170.581 14.4525C171.975 14.4525 173.182 14.6905 174.202 15.1665C175.239 15.6255 176.072 16.1695 176.701 16.7985C177.347 17.4105 177.763 17.963 177.95 18.456V15.0645H184.376V36H178.027ZM166.654 25.545C166.654 26.718 166.917 27.755 167.444 28.656C167.971 29.54 168.668 30.2285 169.535 30.7215C170.402 31.2145 171.346 31.461 172.366 31.461C173.437 31.461 174.389 31.2145 175.222 30.7215C176.055 30.2115 176.709 29.5145 177.185 28.6305C177.678 27.7295 177.925 26.701 177.925 25.545C177.925 24.389 177.678 23.369 177.185 22.485C176.709 21.584 176.055 20.8785 175.222 20.3685C174.389 19.8585 173.437 19.6035 172.366 19.6035C171.346 19.6035 170.402 19.8585 169.535 20.3685C168.668 20.8615 167.971 21.5585 167.444 22.4595C166.917 23.3435 166.654 24.372 166.654 25.545Z" fill="#333333"/>
<path d="M37.87 41.97H40.19C40.2433 41.97 40.2867 41.99 40.32 42.03C40.36 42.07 40.38 42.1133 40.38 42.16C40.38 42.2133 40.36 42.26 40.32 42.3C40.2867 42.3333 40.2433 42.35 40.19 42.35H37.87C37.8233 42.35 37.78 42.33 37.74 42.29C37.7 42.25 37.68 42.2067 37.68 42.16C37.68 42.1067 37.7 42.0633 37.74 42.03C37.78 41.99 37.8233 41.97 37.87 41.97ZM38.89 40.5C38.95 40.5 38.9967 40.52 39.03 40.56C39.07 40.6 39.09 40.6467 39.09 40.7V45.91C39.09 46.13 39.1167 46.2933 39.17 46.4C39.23 46.5 39.3033 46.5667 39.39 46.6C39.4767 46.6267 39.56 46.64 39.64 46.64C39.6867 46.64 39.7267 46.6333 39.76 46.62C39.7933 46.6067 39.8333 46.6 39.88 46.6C39.9267 46.6 39.9667 46.62 40 46.66C40.0333 46.6933 40.05 46.7333 40.05 46.78C40.05 46.84 40.01 46.8933 39.93 46.94C39.8567 46.98 39.7633 47 39.65 47C39.61 47 39.5367 47 39.43 47C39.33 46.9933 39.22 46.9633 39.1 46.91C38.9867 46.85 38.89 46.7467 38.81 46.6C38.73 46.4467 38.69 46.2233 38.69 45.93V40.7C38.69 40.6467 38.71 40.6 38.75 40.56C38.79 40.52 38.8367 40.5 38.89 40.5ZM44.6941 47C44.6341 47 44.5841 46.98 44.5441 46.94C44.5107 46.9 44.4941 46.8533 44.4941 46.8V42.21C44.4941 42.1567 44.5141 42.11 44.5541 42.07C44.5941 42.03 44.6407 42.01 44.6941 42.01C44.7541 42.01 44.8007 42.03 44.8341 42.07C44.8741 42.11 44.8941 42.1567 44.8941 42.21V43.9L44.7241 44.16C44.7241 43.9 44.7674 43.6367 44.8541 43.37C44.9474 43.1033 45.0807 42.8567 45.2541 42.63C45.4274 42.3967 45.6374 42.21 45.8841 42.07C46.1374 41.9233 46.4274 41.85 46.7541 41.85C46.8474 41.85 46.9474 41.8633 47.0541 41.89C47.1607 41.9167 47.2141 41.98 47.2141 42.08C47.2141 42.14 47.1974 42.19 47.1641 42.23C47.1307 42.27 47.0874 42.29 47.0341 42.29C46.9941 42.29 46.9441 42.2767 46.8841 42.25C46.8307 42.2167 46.7507 42.2 46.6441 42.2C46.4307 42.2 46.2207 42.2633 46.0141 42.39C45.8074 42.5167 45.6174 42.6867 45.4441 42.9C45.2774 43.1067 45.1441 43.3333 45.0441 43.58C44.9441 43.8267 44.8941 44.0667 44.8941 44.3V46.8C44.8941 46.8533 44.8741 46.9 44.8341 46.94C44.7941 46.98 44.7474 47 44.6941 47ZM55.1885 42.01C55.2485 42.01 55.2952 42.03 55.3285 42.07C55.3685 42.11 55.3885 42.1567 55.3885 42.21V46.8C55.3885 46.8533 55.3685 46.9 55.3285 46.94C55.2885 46.98 55.2418 47 55.1885 47C55.1285 47 55.0785 46.98 55.0385 46.94C55.0052 46.9 54.9885 46.8533 54.9885 46.8V45.38L55.1485 45.25C55.1485 45.4633 55.0952 45.68 54.9885 45.9C54.8818 46.12 54.7352 46.32 54.5485 46.5C54.3618 46.68 54.1418 46.8267 53.8885 46.94C53.6352 47.0467 53.3618 47.1 53.0685 47.1C52.6218 47.1 52.2218 46.9833 51.8685 46.75C51.5218 46.5167 51.2485 46.2 51.0485 45.8C50.8485 45.4 50.7485 44.95 50.7485 44.45C50.7485 43.9433 50.8485 43.4967 51.0485 43.11C51.2552 42.7167 51.5318 42.41 51.8785 42.19C52.2318 41.9633 52.6285 41.85 53.0685 41.85C53.3552 41.85 53.6252 41.9033 53.8785 42.01C54.1318 42.11 54.3518 42.2533 54.5385 42.44C54.7318 42.6267 54.8818 42.8467 54.9885 43.1C55.0952 43.3467 55.1485 43.6167 55.1485 43.91L54.9885 43.66V42.21C54.9885 42.1567 55.0052 42.11 55.0385 42.07C55.0785 42.03 55.1285 42.01 55.1885 42.01ZM53.0885 46.72C53.4618 46.72 53.7952 46.6233 54.0885 46.43C54.3818 46.23 54.6118 45.96 54.7785 45.62C54.9452 45.2733 55.0285 44.8833 55.0285 44.45C55.0285 44.0367 54.9452 43.6633 54.7785 43.33C54.6118 42.99 54.3818 42.7233 54.0885 42.53C53.7952 42.33 53.4618 42.23 53.0885 42.23C52.7218 42.23 52.3918 42.3267 52.0985 42.52C51.8052 42.7067 51.5718 42.9667 51.3985 43.3C51.2318 43.6333 51.1485 44.0167 51.1485 44.45C51.1485 44.8833 51.2318 45.2733 51.3985 45.62C51.5652 45.96 51.7952 46.23 52.0885 46.43C52.3818 46.6233 52.7152 46.72 53.0885 46.72ZM59.6877 41.83C59.721 41.83 59.7543 41.8433 59.7877 41.87C59.8277 41.89 59.8543 41.92 59.8677 41.96L61.7177 46.39L61.6177 46.46L63.4977 41.96C63.531 41.8733 63.601 41.83 63.7077 41.83C63.741 41.83 63.781 41.8433 63.8277 41.87C63.8743 41.8967 63.8977 41.9367 63.8977 41.99C63.8977 42.0233 63.8943 42.05 63.8877 42.07C63.881 42.0833 63.8743 42.0967 63.8677 42.11L61.8777 46.87C61.8443 46.9567 61.781 47 61.6877 47C61.6477 47 61.6077 46.99 61.5677 46.97C61.5343 46.9433 61.511 46.91 61.4977 46.87L59.4977 42.12C59.491 42.1067 59.4843 42.0933 59.4777 42.08C59.4777 42.06 59.4777 42.0433 59.4777 42.03C59.4777 41.9767 59.4943 41.93 59.5277 41.89C59.561 41.85 59.6143 41.83 59.6877 41.83ZM70.3046 47.1C69.8046 47.1 69.3613 46.9933 68.9746 46.78C68.5946 46.5667 68.2946 46.2667 68.0746 45.88C67.8546 45.4867 67.7446 45.0267 67.7446 44.5C67.7446 43.94 67.8513 43.4633 68.0646 43.07C68.2846 42.6767 68.5646 42.3767 68.9046 42.17C69.2513 41.9567 69.6179 41.85 70.0046 41.85C70.2846 41.85 70.5579 41.8967 70.8246 41.99C71.0913 42.0767 71.3279 42.2167 71.5346 42.41C71.7479 42.5967 71.9179 42.8333 72.0446 43.12C72.1779 43.4 72.2513 43.7367 72.2646 44.13C72.2646 44.1833 72.2446 44.2333 72.2046 44.28C72.1646 44.32 72.1179 44.34 72.0646 44.34H67.9846L67.9246 43.96H71.9546L71.8546 44.05V43.87C71.8213 43.5167 71.7079 43.22 71.5146 42.98C71.3279 42.74 71.1013 42.56 70.8346 42.44C70.5679 42.3133 70.2913 42.25 70.0046 42.25C69.8046 42.25 69.5946 42.2967 69.3746 42.39C69.1546 42.4767 68.9513 42.6133 68.7646 42.8C68.5779 42.98 68.4246 43.21 68.3046 43.49C68.1913 43.77 68.1346 44.0967 68.1346 44.47C68.1346 44.8767 68.2146 45.25 68.3746 45.59C68.5413 45.93 68.7846 46.2033 69.1046 46.41C69.4313 46.6167 69.8313 46.72 70.3046 46.72C70.5313 46.72 70.7446 46.6833 70.9446 46.61C71.1446 46.53 71.3246 46.4267 71.4846 46.3C71.6446 46.1733 71.7746 46.0367 71.8746 45.89C71.9279 45.83 71.9846 45.8 72.0446 45.8C72.0913 45.8 72.1313 45.82 72.1646 45.86C72.1979 45.8933 72.2146 45.9333 72.2146 45.98C72.2146 46.0267 72.2013 46.0667 72.1746 46.1C71.9679 46.3667 71.7013 46.6 71.3746 46.8C71.0546 47 70.6979 47.1 70.3046 47.1ZM77.0613 46.8C77.0613 46.8533 77.0413 46.9 77.0013 46.94C76.9613 46.98 76.9146 47 76.8613 47C76.8013 47 76.7513 46.98 76.7113 46.94C76.6779 46.9 76.6613 46.8533 76.6613 46.8V39.8C76.6613 39.7467 76.6813 39.7 76.7213 39.66C76.7613 39.62 76.8079 39.6 76.8613 39.6C76.9213 39.6 76.9679 39.62 77.0013 39.66C77.0413 39.7 77.0613 39.7467 77.0613 39.8V46.8ZM89.5748 41.85C89.8748 41.85 90.1548 41.9033 90.4148 42.01C90.6748 42.1167 90.9014 42.2567 91.0948 42.43C91.2948 42.6033 91.4481 42.79 91.5548 42.99C91.6681 43.19 91.7248 43.3867 91.7248 43.58L91.5948 43.21V42.21C91.5948 42.1567 91.6114 42.11 91.6448 42.07C91.6848 42.03 91.7348 42.01 91.7948 42.01C91.8548 42.01 91.9014 42.03 91.9348 42.07C91.9748 42.11 91.9948 42.1567 91.9948 42.21V46.51C91.9948 47.0233 91.8881 47.4667 91.6748 47.84C91.4681 48.2133 91.1814 48.5 90.8148 48.7C90.4481 48.9 90.0214 49 89.5348 49C89.2681 49 88.9981 48.9633 88.7248 48.89C88.4581 48.8233 88.2348 48.7367 88.0548 48.63C87.8748 48.5233 87.7848 48.41 87.7848 48.29C87.7848 48.2367 87.7981 48.1933 87.8248 48.16C87.8581 48.1267 87.9014 48.11 87.9548 48.11C88.0214 48.11 88.0814 48.1467 88.1348 48.22C88.1948 48.2933 88.2981 48.36 88.4448 48.42C88.5048 48.44 88.5848 48.4667 88.6848 48.5C88.7914 48.5333 88.9181 48.56 89.0648 48.58C89.2114 48.6067 89.3748 48.62 89.5548 48.62C90.1881 48.62 90.6848 48.4233 91.0448 48.03C91.4114 47.6433 91.5948 47.1367 91.5948 46.51V45.52L91.6948 45.53C91.6148 45.8167 91.4981 46.06 91.3448 46.26C91.1914 46.46 91.0148 46.6233 90.8148 46.75C90.6214 46.87 90.4148 46.9567 90.1948 47.01C89.9814 47.07 89.7748 47.1 89.5748 47.1C89.1148 47.1 88.7014 46.9867 88.3348 46.76C87.9748 46.5267 87.6881 46.2133 87.4748 45.82C87.2614 45.42 87.1548 44.97 87.1548 44.47C87.1548 43.97 87.2614 43.5233 87.4748 43.13C87.6881 42.73 87.9748 42.4167 88.3348 42.19C88.7014 41.9633 89.1148 41.85 89.5748 41.85ZM89.5948 42.23C89.2081 42.23 88.8581 42.3267 88.5448 42.52C88.2381 42.7133 87.9948 42.98 87.8148 43.32C87.6414 43.6533 87.5548 44.0367 87.5548 44.47C87.5548 44.8967 87.6414 45.28 87.8148 45.62C87.9948 45.96 88.2381 46.23 88.5448 46.43C88.8581 46.6233 89.2081 46.72 89.5948 46.72C89.9814 46.72 90.3281 46.6267 90.6348 46.44C90.9414 46.2467 91.1848 45.9833 91.3648 45.65C91.5448 45.31 91.6348 44.9167 91.6348 44.47C91.6348 44.0233 91.5448 43.6333 91.3648 43.3C91.1848 42.96 90.9414 42.6967 90.6348 42.51C90.3281 42.3233 89.9814 42.23 89.5948 42.23ZM100.348 42.01C100.408 42.01 100.455 42.03 100.488 42.07C100.528 42.11 100.548 42.1567 100.548 42.21V45.12C100.548 45.7667 100.365 46.2533 99.998 46.58C99.638 46.9 99.158 47.06 98.558 47.06C97.9647 47.06 97.4847 46.9 97.118 46.58C96.758 46.2533 96.578 45.7667 96.578 45.12V42.21C96.578 42.1567 96.598 42.11 96.638 42.07C96.678 42.03 96.7247 42.01 96.778 42.01C96.838 42.01 96.8847 42.03 96.918 42.07C96.958 42.11 96.978 42.1567 96.978 42.21V45.12C96.978 45.6267 97.118 46.0133 97.398 46.28C97.6847 46.5467 98.0714 46.68 98.558 46.68C99.0514 46.68 99.438 46.5467 99.718 46.28C100.005 46.0133 100.148 45.6267 100.148 45.12V42.21C100.148 42.1567 100.165 42.11 100.198 42.07C100.238 42.03 100.288 42.01 100.348 42.01ZM105.613 46.8C105.613 46.8533 105.593 46.9 105.553 46.94C105.513 46.98 105.466 47 105.413 47C105.353 47 105.303 46.98 105.263 46.94C105.229 46.9 105.213 46.8533 105.213 46.8V42.05C105.213 41.9967 105.233 41.95 105.273 41.91C105.313 41.87 105.359 41.85 105.413 41.85C105.473 41.85 105.519 41.87 105.553 41.91C105.593 41.95 105.613 41.9967 105.613 42.05V46.8ZM105.413 41.17C105.306 41.17 105.219 41.14 105.153 41.08C105.093 41.02 105.063 40.9433 105.063 40.85V40.77C105.063 40.6767 105.096 40.6 105.163 40.54C105.229 40.48 105.316 40.45 105.423 40.45C105.516 40.45 105.593 40.48 105.653 40.54C105.719 40.6 105.753 40.6767 105.753 40.77V40.85C105.753 40.9433 105.719 41.02 105.653 41.08C105.593 41.14 105.513 41.17 105.413 41.17ZM114.403 39.6C114.463 39.6 114.51 39.62 114.543 39.66C114.583 39.7 114.603 39.7467 114.603 39.8V46.8C114.603 46.8533 114.583 46.9 114.543 46.94C114.503 46.98 114.457 47 114.403 47C114.343 47 114.293 46.98 114.253 46.94C114.22 46.9 114.203 46.8533 114.203 46.8V45.38L114.363 45.16C114.363 45.3867 114.31 45.6167 114.203 45.85C114.103 46.0767 113.957 46.2867 113.763 46.48C113.577 46.6667 113.357 46.8167 113.103 46.93C112.85 47.0433 112.577 47.1 112.283 47.1C111.843 47.1 111.447 46.9867 111.093 46.76C110.747 46.5267 110.47 46.2133 110.263 45.82C110.063 45.42 109.963 44.97 109.963 44.47C109.963 43.97 110.063 43.5233 110.263 43.13C110.47 42.73 110.747 42.4167 111.093 42.19C111.447 41.9633 111.843 41.85 112.283 41.85C112.557 41.85 112.817 41.9033 113.063 42.01C113.317 42.11 113.54 42.2533 113.733 42.44C113.927 42.6267 114.08 42.8467 114.193 43.1C114.307 43.3467 114.363 43.6167 114.363 43.91L114.203 43.66V39.8C114.203 39.7467 114.22 39.7 114.253 39.66C114.293 39.62 114.343 39.6 114.403 39.6ZM112.303 46.72C112.683 46.72 113.017 46.6233 113.303 46.43C113.597 46.2367 113.827 45.97 113.993 45.63C114.16 45.29 114.243 44.9033 114.243 44.47C114.243 44.0367 114.16 43.6533 113.993 43.32C113.827 42.98 113.597 42.7133 113.303 42.52C113.01 42.3267 112.677 42.23 112.303 42.23C111.937 42.23 111.607 42.3267 111.313 42.52C111.02 42.7133 110.787 42.98 110.613 43.32C110.447 43.6533 110.363 44.0367 110.363 44.47C110.363 44.8967 110.447 45.28 110.613 45.62C110.787 45.96 111.02 46.23 111.313 46.43C111.607 46.6233 111.937 46.72 112.303 46.72ZM121.51 47.1C121.01 47.1 120.566 46.9933 120.18 46.78C119.8 46.5667 119.5 46.2667 119.28 45.88C119.06 45.4867 118.95 45.0267 118.95 44.5C118.95 43.94 119.056 43.4633 119.27 43.07C119.49 42.6767 119.77 42.3767 120.11 42.17C120.456 41.9567 120.823 41.85 121.21 41.85C121.49 41.85 121.763 41.8967 122.03 41.99C122.296 42.0767 122.533 42.2167 122.74 42.41C122.953 42.5967 123.123 42.8333 123.25 43.12C123.383 43.4 123.456 43.7367 123.47 44.13C123.47 44.1833 123.45 44.2333 123.41 44.28C123.37 44.32 123.323 44.34 123.27 44.34H119.19L119.13 43.96H123.16L123.06 44.05V43.87C123.026 43.5167 122.913 43.22 122.72 42.98C122.533 42.74 122.306 42.56 122.04 42.44C121.773 42.3133 121.496 42.25 121.21 42.25C121.01 42.25 120.8 42.2967 120.58 42.39C120.36 42.4767 120.156 42.6133 119.97 42.8C119.783 42.98 119.63 43.21 119.51 43.49C119.396 43.77 119.34 44.0967 119.34 44.47C119.34 44.8767 119.42 45.25 119.58 45.59C119.746 45.93 119.99 46.2033 120.31 46.41C120.636 46.6167 121.036 46.72 121.51 46.72C121.736 46.72 121.95 46.6833 122.15 46.61C122.35 46.53 122.53 46.4267 122.69 46.3C122.85 46.1733 122.98 46.0367 123.08 45.89C123.133 45.83 123.19 45.8 123.25 45.8C123.296 45.8 123.336 45.82 123.37 45.86C123.403 45.8933 123.42 45.9333 123.42 45.98C123.42 46.0267 123.406 46.0667 123.38 46.1C123.173 46.3667 122.906 46.6 122.58 46.8C122.26 47 121.903 47.1 121.51 47.1ZM127.536 46.2C127.49 46.12 127.466 46.0567 127.466 46.01C127.473 45.9567 127.5 45.9133 127.546 45.88C127.58 45.8467 127.623 45.8333 127.676 45.84C127.736 45.84 127.786 45.8633 127.826 45.91C128 46.1567 128.22 46.3567 128.486 46.51C128.76 46.6633 129.08 46.74 129.446 46.74C129.666 46.74 129.876 46.7033 130.076 46.63C130.283 46.5567 130.45 46.4467 130.576 46.3C130.71 46.1533 130.776 45.9733 130.776 45.76C130.776 45.5333 130.713 45.3533 130.586 45.22C130.46 45.08 130.296 44.97 130.096 44.89C129.896 44.81 129.686 44.7433 129.466 44.69C129.233 44.63 129.01 44.5633 128.796 44.49C128.59 44.41 128.406 44.3133 128.246 44.2C128.086 44.08 127.96 43.94 127.866 43.78C127.773 43.62 127.726 43.43 127.726 43.21C127.726 42.95 127.796 42.7167 127.936 42.51C128.076 42.3033 128.273 42.1433 128.526 42.03C128.78 41.91 129.073 41.85 129.406 41.85C129.566 41.85 129.736 41.87 129.916 41.91C130.096 41.95 130.276 42.02 130.456 42.12C130.636 42.2133 130.803 42.3467 130.956 42.52C131.01 42.56 131.033 42.61 131.026 42.67C131.026 42.7233 131.003 42.7733 130.956 42.82C130.916 42.8467 130.873 42.86 130.826 42.86C130.78 42.86 130.74 42.84 130.706 42.8C130.533 42.6067 130.33 42.4633 130.096 42.37C129.87 42.2767 129.626 42.23 129.366 42.23C129.146 42.23 128.94 42.2667 128.746 42.34C128.56 42.4133 128.406 42.5233 128.286 42.67C128.166 42.81 128.106 42.99 128.106 43.21C128.12 43.4167 128.19 43.5867 128.316 43.72C128.45 43.8533 128.623 43.9633 128.836 44.05C129.056 44.1367 129.303 44.2167 129.576 44.29C129.796 44.3433 130 44.4067 130.186 44.48C130.38 44.5467 130.546 44.6333 130.686 44.74C130.833 44.8467 130.946 44.98 131.026 45.14C131.113 45.3 131.156 45.5 131.156 45.74C131.156 46.02 131.08 46.2633 130.926 46.47C130.78 46.67 130.573 46.8267 130.306 46.94C130.046 47.0467 129.746 47.1 129.406 47.1C129.06 47.1 128.726 47.03 128.406 46.89C128.086 46.75 127.796 46.52 127.536 46.2ZM143.02 47.1C142.547 47.1 142.13 46.99 141.77 46.77C141.41 46.5433 141.13 46.2533 140.93 45.9C140.73 45.5467 140.63 45.1767 140.63 44.79C140.63 44.51 140.687 44.2367 140.8 43.97C140.92 43.6967 141.097 43.45 141.33 43.23C141.57 43.01 141.873 42.84 142.24 42.72L142.55 43.03C142.017 43.15 141.633 43.3733 141.4 43.7C141.167 44.02 141.05 44.3667 141.05 44.74C141.05 45.0733 141.127 45.39 141.28 45.69C141.433 45.99 141.657 46.2333 141.95 46.42C142.25 46.6067 142.607 46.7 143.02 46.7C143.493 46.7 143.897 46.63 144.23 46.49C144.563 46.35 144.84 46.16 145.06 45.92C145.28 45.68 145.457 45.4133 145.59 45.12C145.723 44.82 145.82 44.5167 145.88 44.21C145.893 44.1567 145.917 44.1167 145.95 44.09C145.99 44.0567 146.037 44.04 146.09 44.04C146.15 44.04 146.2 44.0633 146.24 44.11C146.28 44.15 146.293 44.2033 146.28 44.27C146.227 44.6167 146.12 44.96 145.96 45.3C145.8 45.6333 145.587 45.9367 145.32 46.21C145.053 46.4833 144.727 46.7 144.34 46.86C143.96 47.02 143.52 47.1 143.02 47.1ZM146.57 46.96C146.55 46.96 146.53 46.9567 146.51 46.95C146.49 46.9367 146.47 46.9267 146.45 46.92C146.063 46.6333 145.683 46.35 145.31 46.07C144.943 45.79 144.567 45.4733 144.18 45.12C143.8 44.7667 143.39 44.34 142.95 43.84C142.717 43.5733 142.507 43.3067 142.32 43.04C142.133 42.7667 141.983 42.5 141.87 42.24C141.763 41.9733 141.71 41.7167 141.71 41.47C141.71 41.1633 141.78 40.8933 141.92 40.66C142.067 40.42 142.273 40.2333 142.54 40.1C142.807 39.9667 143.123 39.9 143.49 39.9C143.977 39.9 144.367 39.9967 144.66 40.19C144.953 40.3767 145.163 40.5933 145.29 40.84C145.297 40.8467 145.303 40.8633 145.31 40.89C145.323 40.91 145.33 40.9333 145.33 40.96C145.33 40.9933 145.31 41.0333 145.27 41.08C145.237 41.12 145.19 41.14 145.13 41.14C145.097 41.14 145.063 41.1333 145.03 41.12C145.003 41.1 144.98 41.0767 144.96 41.05C144.833 40.85 144.657 40.6767 144.43 40.53C144.21 40.3767 143.897 40.3 143.49 40.3C143.043 40.3 142.703 40.41 142.47 40.63C142.243 40.8433 142.13 41.13 142.13 41.49C142.13 41.69 142.18 41.91 142.28 42.15C142.38 42.39 142.517 42.6367 142.69 42.89C142.863 43.1433 143.06 43.3933 143.28 43.64C143.567 43.9667 143.863 44.2767 144.17 44.57C144.477 44.8633 144.78 45.1367 145.08 45.39C145.38 45.6367 145.667 45.86 145.94 46.06C146.213 46.26 146.46 46.4367 146.68 46.59C146.713 46.61 146.737 46.6333 146.75 46.66C146.763 46.6867 146.77 46.7167 146.77 46.75C146.77 46.7967 146.75 46.8433 146.71 46.89C146.677 46.9367 146.63 46.96 146.57 46.96ZM158.865 41.85C159.312 41.85 159.708 41.9633 160.055 42.19C160.402 42.41 160.675 42.7167 160.875 43.11C161.082 43.4967 161.185 43.9433 161.185 44.45C161.185 44.95 161.082 45.4 160.875 45.8C160.675 46.2 160.398 46.5167 160.045 46.75C159.698 46.9833 159.305 47.1 158.865 47.1C158.645 47.1 158.432 47.0667 158.225 47C158.025 46.9333 157.838 46.84 157.665 46.72C157.492 46.5933 157.332 46.4433 157.185 46.27C157.045 46.09 156.922 45.89 156.815 45.67L156.945 45.53V46.8C156.945 46.8533 156.925 46.9 156.885 46.94C156.852 46.98 156.805 47 156.745 47C156.692 47 156.645 46.98 156.605 46.94C156.565 46.9 156.545 46.8533 156.545 46.8V39.81C156.545 39.7567 156.562 39.71 156.595 39.67C156.635 39.63 156.685 39.61 156.745 39.61C156.805 39.61 156.852 39.63 156.885 39.67C156.925 39.71 156.945 39.7567 156.945 39.81V43.43L156.815 43.36C156.908 43.1133 157.025 42.8967 157.165 42.71C157.305 42.5233 157.465 42.3667 157.645 42.24C157.825 42.1133 158.018 42.0167 158.225 41.95C158.432 41.8833 158.645 41.85 158.865 41.85ZM158.845 42.23C158.465 42.23 158.128 42.3267 157.835 42.52C157.548 42.7067 157.322 42.9667 157.155 43.3C156.988 43.6333 156.905 44.0167 156.905 44.45C156.905 44.8833 156.988 45.2733 157.155 45.62C157.322 45.96 157.548 46.23 157.835 46.43C158.128 46.6233 158.465 46.72 158.845 46.72C159.218 46.72 159.548 46.62 159.835 46.42C160.128 46.22 160.358 45.95 160.525 45.61C160.698 45.2633 160.785 44.8767 160.785 44.45C160.785 44.0167 160.698 43.6333 160.525 43.3C160.358 42.9667 160.128 42.7067 159.835 42.52C159.548 42.3267 159.218 42.23 158.845 42.23ZM165.981 46.8C165.981 46.8533 165.961 46.9 165.921 46.94C165.881 46.98 165.835 47 165.781 47C165.721 47 165.671 46.98 165.631 46.94C165.598 46.9 165.581 46.8533 165.581 46.8V39.8C165.581 39.7467 165.601 39.7 165.641 39.66C165.681 39.62 165.728 39.6 165.781 39.6C165.841 39.6 165.888 39.62 165.921 39.66C165.961 39.7 165.981 39.7467 165.981 39.8V46.8ZM175.212 44.48C175.212 44.9733 175.105 45.42 174.892 45.82C174.678 46.2133 174.385 46.5267 174.012 46.76C173.645 46.9867 173.225 47.1 172.752 47.1C172.285 47.1 171.865 46.9867 171.492 46.76C171.118 46.5267 170.822 46.2133 170.602 45.82C170.388 45.42 170.282 44.9733 170.282 44.48C170.282 43.98 170.388 43.5333 170.602 43.14C170.822 42.74 171.118 42.4267 171.492 42.2C171.865 41.9667 172.285 41.85 172.752 41.85C173.225 41.85 173.645 41.9667 174.012 42.2C174.385 42.4267 174.678 42.74 174.892 43.14C175.105 43.5333 175.212 43.98 175.212 44.48ZM174.812 44.48C174.812 44.0467 174.722 43.6633 174.542 43.33C174.368 42.99 174.125 42.7233 173.812 42.53C173.505 42.33 173.152 42.23 172.752 42.23C172.358 42.23 172.005 42.33 171.692 42.53C171.378 42.7233 171.132 42.99 170.952 43.33C170.772 43.6633 170.682 44.0467 170.682 44.48C170.682 44.9067 170.772 45.29 170.952 45.63C171.132 45.9633 171.378 46.23 171.692 46.43C172.005 46.6233 172.358 46.72 172.752 46.72C173.152 46.72 173.505 46.6233 173.812 46.43C174.125 46.23 174.368 45.9633 174.542 45.63C174.722 45.29 174.812 44.9067 174.812 44.48ZM181.669 41.85C181.969 41.85 182.249 41.9033 182.509 42.01C182.769 42.1167 182.995 42.2567 183.189 42.43C183.389 42.6033 183.542 42.79 183.649 42.99C183.762 43.19 183.819 43.3867 183.819 43.58L183.689 43.21V42.21C183.689 42.1567 183.705 42.11 183.739 42.07C183.779 42.03 183.829 42.01 183.889 42.01C183.949 42.01 183.995 42.03 184.029 42.07C184.069 42.11 184.089 42.1567 184.089 42.21V46.51C184.089 47.0233 183.982 47.4667 183.769 47.84C183.562 48.2133 183.275 48.5 182.909 48.7C182.542 48.9 182.115 49 181.629 49C181.362 49 181.092 48.9633 180.819 48.89C180.552 48.8233 180.329 48.7367 180.149 48.63C179.969 48.5233 179.879 48.41 179.879 48.29C179.879 48.2367 179.892 48.1933 179.919 48.16C179.952 48.1267 179.995 48.11 180.049 48.11C180.115 48.11 180.175 48.1467 180.229 48.22C180.289 48.2933 180.392 48.36 180.539 48.42C180.599 48.44 180.679 48.4667 180.779 48.5C180.885 48.5333 181.012 48.56 181.159 48.58C181.305 48.6067 181.469 48.62 181.649 48.62C182.282 48.62 182.779 48.4233 183.139 48.03C183.505 47.6433 183.689 47.1367 183.689 46.51V45.52L183.789 45.53C183.709 45.8167 183.592 46.06 183.439 46.26C183.285 46.46 183.109 46.6233 182.909 46.75C182.715 46.87 182.509 46.9567 182.289 47.01C182.075 47.07 181.869 47.1 181.669 47.1C181.209 47.1 180.795 46.9867 180.429 46.76C180.069 46.5267 179.782 46.2133 179.569 45.82C179.355 45.42 179.249 44.97 179.249 44.47C179.249 43.97 179.355 43.5233 179.569 43.13C179.782 42.73 180.069 42.4167 180.429 42.19C180.795 41.9633 181.209 41.85 181.669 41.85ZM181.689 42.23C181.302 42.23 180.952 42.3267 180.639 42.52C180.332 42.7133 180.089 42.98 179.909 43.32C179.735 43.6533 179.649 44.0367 179.649 44.47C179.649 44.8967 179.735 45.28 179.909 45.62C180.089 45.96 180.332 46.23 180.639 46.43C180.952 46.6233 181.302 46.72 181.689 46.72C182.075 46.72 182.422 46.6267 182.729 46.44C183.035 46.2467 183.279 45.9833 183.459 45.65C183.639 45.31 183.729 44.9167 183.729 44.47C183.729 44.0233 183.639 43.6333 183.459 43.3C183.279 42.96 183.035 42.6967 182.729 42.51C182.422 42.3233 182.075 42.23 181.689 42.23Z" fill="#333333"/>
</svg>
